<?xml version="1.0" standalone="no"?>
<!DOCTYPE svg PUBLIC "-//W3C//DTD SVG 20010904//EN"
 "http://www.w3.org/TR/2001/REC-SVG-20010904/DTD/svg10.dtd">
<svg version="1.0" xmlns="http://www.w3.org/2000/svg"
 width="128.000000pt" height="128.000000pt" viewBox="0 0 128.000000 128.000000"
 preserveAspectRatio="xMidYMid meet">
<metadata>
Created by potrace 1.14, written by Peter Selinger 2001-2017
</metadata>
<g transform="translate(0.000000,128.000000) scale(0.100000,-0.100000)"
fill="#000000" stroke="none">
<path d="M307 1229 c-131 -20 -228 -136 -228 -274 0 -157 114 -272 276 -278
l68 -2 38 -112 37 -111 -39 -32 c-156 -125 -72 -371 126 -371 118 0 206 88
206 206 0 109 -79 197 -186 207 l-39 4 -39 117 -38 116 54 54 c38 37 60 69 73
105 l19 53 50 -5 c27 -3 85 -8 128 -12 60 -4 77 -9 77 -21 0 -8 10 -33 22 -55
66 -117 246 -118 314 -2 51 86 21 204 -64 252 -87 49 -203 17 -251 -68 l-23
-41 -51 5 c-29 3 -87 8 -129 12 -71 5 -78 8 -78 27 0 12 -9 40 -19 62 -54 119
-172 183 -304 164z m141 -88 c73 -38 112 -102 112 -186 0 -121 -84 -205 -205
-205 -120 0 -205 84 -205 205 0 85 39 148 115 188 43 23 137 22 183 -2z m701
-152 c26 -26 31 -38 31 -79 0 -41 -5 -53 -31 -79 -26 -26 -38 -31 -79 -31 -41
0 -53 5 -79 31 -25 24 -31 39 -31 72 1 50 18 85 51 103 13 7 43 13 66 14 33 0
48 -6 72 -31z m-468 -638 c36 -36 39 -43 39 -96 0 -53 -3 -60 -39 -96 -36 -36
-43 -39 -96 -39 -53 0 -60 3 -96 39 -36 36 -39 43 -39 96 0 53 3 60 39 96 36
36 43 39 96 39 53 0 60 -3 96 -39z"/>
</g>
</svg>
